<?xml version="1.0" encoding="utf-8"?>
<!-- Generator: Adobe Illustrator 16.0.0, SVG Export Plug-In . SVG Version: 6.00 Build 0)  -->
<!DOCTYPE svg PUBLIC "-//W3C//DTD SVG 1.1//EN" "http://www.w3.org/Graphics/SVG/1.1/DTD/svg11.dtd">
<svg version="1.1" id="Layer_1" xmlns="http://www.w3.org/2000/svg" xmlns:xlink="http://www.w3.org/1999/xlink" x="0px" y="0px"
	 width="352px" height="250px" viewBox="0 0 352 250" enable-background="new 0 0 352 250" xml:space="preserve">
<g>
	<path fill="#00AEEF" d="M136.705,89.135v-2.689v-9.778V65.258c0-5.107,5.224-9.245,11.652-9.245h23.782V34.847
		c0-3.414-3.669-6.182-8.196-6.182H90.226c-4.525,0-8.196,2.768-8.196,6.182v55.605c0,3.413,3.671,6.181,8.196,6.181h46.246
		c0.284-1.405,0.615-2.798,1.04-4.146C136.999,91.448,136.705,90.319,136.705,89.135z"/>
	<path fill="#00AEEF" d="M269.971,90.452V34.847c0-3.414-3.671-6.182-8.196-6.182h-73.718c-4.527,0-8.196,2.768-8.196,6.182v21.166
		h22.865c6.432,0,11.653,4.138,11.653,9.245v12.077v9.784v2.016c0,0.723-0.117,1.419-0.315,2.094
		c0.615,1.743,1.084,3.559,1.458,5.404h46.253C266.3,96.633,269.971,93.865,269.971,90.452z"/>
	<path fill="#00AEEF" d="M135.65,104.623c0-0.094,0.008-0.182,0.008-0.271H90.226c-4.525,0-8.196,2.77-8.196,6.183v55.604
		c0,3.414,3.671,6.182,8.196,6.182h73.718c4.527,0,8.196-2.768,8.196-6.182v-21.356C151.67,142.843,135.65,125.6,135.65,104.623z"/>
	<path fill="#00AEEF" d="M179.86,144.783v21.356c0,3.414,3.669,6.182,8.196,6.182h73.718c4.525,0,8.196-2.768,8.196-6.182v-55.604
		c0-3.413-3.671-6.183-8.196-6.183h-45.433c0,0.089,0.007,0.177,0.007,0.271C216.349,125.6,200.33,142.843,179.86,144.783z"/>
	<path fill="#414042" d="M210.525,103.796c-0.014-2.263-0.271-4.467-0.703-6.605c-0.313-1.582-0.717-3.135-1.244-4.628
		c0.169-0.58,0.264-1.173,0.264-1.789v-1.728c-0.426,0.301-0.872,0.585-1.318,0.878c-5.062,3.281-11.088,5.787-17.74,7.267
		c-4.363,0.967-8.985,1.494-13.783,1.494s-9.42-0.527-13.783-1.494c-6.652-1.479-12.679-3.985-17.74-7.267
		c-0.717-0.477-1.42-0.952-2.109-1.457v2.307c0,1.011,0.248,1.978,0.689,2.865c-0.367,1.157-0.645,2.344-0.888,3.552
		c-0.433,2.139-0.681,4.343-0.694,6.605c0,0.074-0.009,0.155-0.009,0.228c0,17.959,13.703,32.709,31.231,34.381
		c1.083,0.095,2.188,0.153,3.303,0.153c1.113,0,2.22-0.059,3.303-0.153c17.527-1.672,31.231-16.422,31.231-34.381
		C210.534,103.951,210.525,103.87,210.525,103.796z"/>
	<path fill="#414042" d="M198.874,62.422h-19.571h-6.605h-20.355c-5.508,0-9.975,3.545-9.975,7.917v9.765
		c1.78,1.296,3.691,2.497,5.729,3.581c6.993,3.721,15.438,6.071,24.602,6.532c1.09,0.051,2.188,0.096,3.303,0.096
		c1.113,0,2.213-0.045,3.303-0.096c9.164-0.461,17.608-2.812,24.602-6.532c1.744-0.924,3.393-1.927,4.938-3.011V70.339
		C208.842,65.967,204.382,62.422,198.874,62.422z M176,84.232c-7.631,0-14.545-3.002-19.68-7.865
		c5.135-4.863,12.049-7.865,19.68-7.865s14.545,3.002,19.68,7.865C190.545,81.23,183.631,84.232,176,84.232z"/>
	<path fill="#414042" d="M179.303,72.002c-0.923-0.696-2.059-1.129-3.303-1.129s-2.38,0.433-3.303,1.129
		c-1.326,1.004-2.191,2.578-2.191,4.365s0.865,3.362,2.191,4.365c0.923,0.696,2.059,1.129,3.303,1.129s2.38-0.433,3.303-1.129
		c1.326-1.003,2.191-2.578,2.191-4.365S180.629,73.006,179.303,72.002z"/>
	<g>
		<g>
			<path fill="#00AEEF" d="M70.896,220.486l12.16-32.755h13.621l11.962,32.755H95.464l-1.13-4.116H85.1l-1.02,4.116H70.896z
				 M87.172,208.577h5.061l-1.018-3.721c-0.527-1.81-0.879-3.253-1.055-4.335c-0.206-0.938-0.322-1.883-0.338-2.843h-0.241
				c-0.043,0.893-0.146,1.839-0.3,2.843c-0.116,0.52-0.265,1.141-0.446,1.852c-0.185,0.727-0.388,1.546-0.616,2.483L87.172,208.577z
				"/>
			<path fill="#00AEEF" d="M114.359,220.486v-22.055h-6.827v-10.7h25.884v10.7h-6.824v22.055H114.359z"/>
			<path fill="#00AEEF" d="M160.905,200.748c-1.181-1.063-2.321-1.839-3.428-2.316c-1.157-0.527-2.382-0.782-3.671-0.782
				c-1.97,0-3.581,0.601-4.825,1.794c-1.224,1.172-1.84,2.747-1.84,4.73c0,1.934,0.595,3.473,1.774,4.594
				c1.148,1.157,2.702,1.734,4.649,1.734c1.106,0,2.315-0.24,3.604-0.717c1.148-0.462,2.489-1.23,4.005-2.313l-0.409,12.296
				c-1.334,0.542-2.674,0.938-4.007,1.173c-1.333,0.264-2.672,0.395-4.007,0.395c-1.72,0-3.316-0.176-4.789-0.527
				c-1.516-0.345-2.9-0.856-4.145-1.53c-3.011-1.633-5.296-3.742-6.864-6.328c-1.538-2.55-2.308-5.471-2.308-8.775
				c0-2.415,0.441-4.688,1.327-6.817c0.899-2.109,2.183-3.948,3.838-5.515c1.677-1.613,3.633-2.827,5.873-3.655
				c2.263-0.829,4.682-1.239,7.236-1.239c1.406,0,2.761,0.141,4.081,0.426c1.311,0.257,2.614,0.667,3.903,1.238V200.748z"/>
			<path fill="#00AEEF" d="M165.461,220.486v-32.755h12.261v10.892h7.441v-10.892h12.259v32.755h-12.259v-11.551h-7.441v11.551
				H165.461z"/>
			<path fill="#00AEEF" d="M235.604,220.486l-1.492-12.986c-0.067-0.477-0.117-0.967-0.154-1.473
				c-0.037-0.496-0.074-0.996-0.118-1.493c-0.095-0.718-0.169-1.722-0.241-3.003c-0.141,0.907-0.338,1.912-0.608,3.003
				c-0.249,1.019-0.557,2.14-0.915,3.354l-3.939,12.599h-7.274l-3.903-12.599c-0.482-1.493-0.798-2.621-0.951-3.354
				c-0.293-1.26-0.491-2.263-0.58-3.003c-0.064,0.52-0.123,1.033-0.154,1.529c-0.027,0.507-0.072,0.996-0.117,1.474
				c-0.073,0.71-0.161,1.706-0.271,2.966l-1.465,12.986h-12.025l5.807-32.755h12.642l2.448,8.087
				c0.109,0.439,0.227,0.819,0.337,1.143c1.039,3.544,1.668,6.351,1.866,8.416h0.243c0.153-1.37,0.432-2.835,0.812-4.402
				c0.205-0.785,0.426-1.612,0.659-2.498c0.242-0.878,0.521-1.809,0.835-2.79l2.549-7.955h12.634l5.406,32.755H235.604z"/>
			<path fill="#00AEEF" d="M250.89,220.486l12.167-32.755h13.614l11.96,32.755h-13.184l-1.12-4.116h-9.235l-1.025,4.116H250.89z
				 M267.158,208.577h5.066l-1.018-3.721c-0.52-1.81-0.87-3.253-1.054-4.335c-0.205-0.938-0.316-1.883-0.345-2.843h-0.234
				c-0.045,0.893-0.146,1.839-0.307,2.843c-0.11,0.52-0.257,1.141-0.441,1.852c-0.183,0.727-0.388,1.546-0.613,2.483
				L267.158,208.577z"/>
			<path fill="#00AEEF" d="M291.929,220.486v-32.755h12.026l10.597,17.125c-0.14-0.741-0.233-1.575-0.308-2.513
				c-0.044-1.26-0.066-2.469-0.066-3.619v-10.993H326v32.755h-12.129l-10.459-17.037c0.109,0.981,0.205,1.779,0.271,2.389
				c0.065,0.85,0.103,1.78,0.103,2.805v11.844H291.929z"/>
		</g>
		<polygon fill="#00AEEF" points="62.459,187.726 59.033,197.898 58.725,197.898 54.719,187.726 46.062,187.726 42.025,197.898 
			41.754,197.898 38.291,187.726 26,187.726 35.947,220.479 46.639,220.479 50.17,213.463 50.58,213.463 54.111,220.479 
			64.803,220.479 74.779,187.726 		"/>
	</g>
</g>
</svg>
